# xmcd
#
# Track frame offsets:
#	150
#	10855
#	23040
#	35725
#	47810
#	58947
#	70477
#	81390
#	92505
#	103712
#	115452
#	126177
#	136235
#	148172
#	160220
#	171017
#	182035
#	192240
#	204305
#	215775
#	226717
#	237037
#	247182
#	258962
#	269362
#	279357
#	291350
#	301377
#	312545
#	323252
#	333632
#
# Disc length: 4593 seconds
#
# Revision: 2
# Processed by: cddbd v1.5.1PL2 Copyright (c) Steve Scherf et al.
# Submitted via: dBpowerAMP V4.0
#
DISCID=d211ef1f
DTITLE=Jean Shepard - The Melody Ranch Girl, Disc 2
DYEAR=1900
DGENRE=country
TTITLE0=You're Calling Me Sweetheart Again
TTITLE1=He Loved Me Once and He'll Love Me Again
TTITLE2=Girls In Disgrace
TTITLE3=This Has Been Your Life
TTITLE4=Just Give Me Love
TTITLE5=Thank You Just The Same
TTITLE6=Over and Over
TTITLE7=Tell Me What I Want To Hear
TTITLE8=Shadows On The Wall
TTITLE9=I'll Thank You All My Life
TTITLE10=I Learned It All From You
TTITLE11=Hello Old Broken Heart
TTITLE12=Sad Singin' and Slow Ridin'
TTITLE13=It's Hard To Tell The Married From The Free
TTITLE14=Did I Turn Down a Better Deal
TTITLE15=A Passing Love Affair
TTITLE16=I Married You For Love
TTITLE17=I'm Thinking Tonight of My Blue Eyes
TTITLE18=Be Honest With Me
TTITLE19=Under Suspicion
TTITLE20=I Want To Go Where No One Knows Me
TTITLE21=Tomorrow I'll Be Gone
TTITLE22=If You Can Walk Away
TTITLE23=Go On, Go On
TTITLE24=I Lost You After All
TTITLE25=It Scares Me Half to Death
TTITLE26=You're Just The Kind of Guy
TTITLE27=Too Late With The Roses
TTITLE28=The Other Woman
TTITLE29=Act Like a Married Man
TTITLE30=I Used To Love You
EXTD=
EXTT0=
EXTT1=
EXTT2=
EXTT3=
EXTT4=
EXTT5=
EXTT6=
EXTT7=
EXTT8=
EXTT9=
EXTT10=
EXTT11=
EXTT12=
EXTT13=
EXTT14=
EXTT15=
EXTT16=
EXTT17=
EXTT18=
EXTT19=
EXTT20=
EXTT21=
EXTT22=
EXTT23=
EXTT24=
EXTT25=
EXTT26=
EXTT27=
EXTT28=
EXTT29=
EXTT30=
PLAYORDER=
